# xmcd
#
# Track frame offsets:
#  150
#  20186
#  34048
#  44470
#  61932
#  75748
#  86818
#  103142
#  114220
#  129536
#  143186
#  152902
#  161679
#  173349
#  189551
#  207623
#  225702
#  242976
#  255757
#  270943
#
# Disc length: 3857 seconds
#
# Revision: 0
# Processed by: cddbd v1.5.2PL0 Copyright (c) Steve Scherf et al.
# Submitted via: Collectorz.com_Music_Collector 6.10
#
DISCID=0e0f0f14
DTITLE=Various Artist - This Is Soul [CD1)
DYEAR=1999
DGENRE=Soul
TTITLE0=The Supremes - Stoned Love
TTITLE1=The Contours - This Old Heart of Mine
TTITLE2=The Drifters - Dance With Me
TTITLE3=Scherrie Payne - I'm Still Waiting
TTITLE4=The Marvelettes - Beachwood 4-5789
TTITLE5=Sam and  Dave - You Don't Know What You Mean To Me
TTITLE6=The Contours - First I Look At The Purse
TTITLE7=Gene Chandler - Duke Of Earl
TTITLE8=Sylvia Moy - My Cherie Amour
TTITLE9=Kim Weston - Dancing In The Street
TTITLE10=James Brown - Please, Please, Please (Live)
TTITLE11=Gladys Knight and The Pips - If Ever I Should Fall In Love
TTITLE12=Maxine Brown - Oh No Not My Baby
TTITLE13=James Brown - I Got The Feelin (Live)
TTITLE14=Martha Reeves - Heatwave
TTITLE15=Scherrie Payne - Ain't No Mountain High Enough
TTITLE16=Frances Nero (Wonder) - You Are The Sunshine Of My Life
TTITLE17=The Drifters - On Broadway
TTITLE18=The Velvelettes - Needle In A Haystack
TTITLE19=Hattie Littles - Touch Me In The Morning
EXTD=
EXTT0=
EXTT1=
EXTT2=
EXTT3=
EXTT4=
EXTT5=
EXTT6=
EXTT7=
EXTT8=
EXTT9=
EXTT10=
EXTT11=
EXTT12=
EXTT13=
EXTT14=
EXTT15=
EXTT16=
EXTT17=
EXTT18=
EXTT19=
PLAYORDER=
